<svg xmlns:xlink="http://www.w3.org/1999/xlink" xmlns="http://www.w3.org/2000/svg" id="illustration" viewBox="0 0 400 400" width="400"  height="400" ><defs><style>.cls-1,.cls-6{fill:#2b2b2b;}.cls-1{opacity:0.1;}.cls-2,.cls-9{fill:#856400;}.cls-3{fill:#474747;}.cls-10,.cls-11,.cls-12,.cls-13,.cls-14,.cls-3,.cls-4,.cls-5,.cls-6,.cls-7,.cls-8,.cls-9{fill-rule:evenodd;}.cls-17,.cls-4{fill:#dfbda5;}.cls-18,.cls-5{fill:#8b6651;}.cls-7{fill:#4f5253;}.cls-16,.cls-8{fill:#c3987b;}.cls-10{fill:#e8cab6;}.cls-11,.cls-25{fill:#755800;}.cls-12,.cls-22{fill:#fff;}.cls-13{fill:#8f8f8f;}.cls-14{fill:#6f7173;}.cls-15{fill:#b58b00;}.cls-19{fill:#ccad14;}.cls-20{fill:#f4d75d;}.cls-21{fill:#e5c828;}.cls-23{fill:#bc8f2d;}.cls-24{fill:#9e7700;}.cls-26{fill:#ac923c;}</style></defs><title>Entrepreneur (ESTP) personality</title><polygon class="cls-1" points="99.57 388.45 207.42 372.46 306.63 386.14 186.73 400.11 99.57 388.45"/><polygon class="cls-2" points="284.45 150.08 266.09 159.01 242.77 159.22 201.44 177.58 196.91 151.16 284.45 150.08"/><polygon class="cls-3" points="178.37 92.89 161.71 30.93 177.85 26.25 190.34 46.97 178.37 92.89"/><polygon class="cls-4" points="189.72 30.93 175.76 53.84 164.1 139.74 235.95 147.86 251.15 40.2 189.72 30.93"/><path class="cls-5" d="M179.2,28.75l-3.33,25.09,51,17.18s7.91-24.37,7.18-25.3c-.93-1.25-1.14-4.17-2.81-8.44L179.2,29.16Z"/><polygon class="cls-6" points="299.15 52.7 303 59.88 312.06 116.21 309.27 140.55 274.05 80.29 299.15 52.7"/><polygon class="cls-7" points="299.15 52.7 324.3 73.18 309.27 140.55 299.15 52.7"/><polygon class="cls-8" points="239.28 175.14 274.05 81.64 251.15 40.2 233.14 149 208.46 161.19 210.09 171.23 200.23 187.64 195.55 200.03 235.01 196.49 239.28 175.14"/><polygon class="cls-5" points="253.71 136.47 258.38 123.65 250.03 122.66 253.71 136.47"/><polygon class="cls-5" points="256.89 128.12 260.67 117.69 248.54 112.71 256.89 128.12"/><polygon class="cls-5" points="201.28 143.8 233.45 147.55 238.66 148.38 200.23 187.64 205.51 171.54 201.28 143.8"/><polygon class="cls-9" points="290.92 65.08 300.81 65.08 302.17 77.79 283.95 77.06 290.92 65.08"/><polygon class="cls-7" points="274.58 40.2 284.36 43.63 290.92 65.08 273.54 95.59 254.38 98.09 247.4 95.59 255.63 48.43 274.58 40.2"/><polygon class="cls-8" points="201.95 101.89 223.66 80.29 243.03 71.02 210.33 68.83 196.69 68 189.19 63.94 174.83 66.02 183.78 76.22 194.15 100.54 198.99 104.65 201.95 101.89"/><polygon class="cls-10" points="196.69 68 194.15 100.54 201.95 101.89 210.33 68.83 196.69 68"/><polygon class="cls-5" points="197.27 105.95 194.15 100.54 201.95 101.89 197.27 105.95"/><polygon class="cls-9" points="178.16 117.35 197.94 111.94 222.93 114.13 203.25 136.09 178.16 117.35"/><polygon class="cls-11" points="212.73 121.94 207.52 127.45 196.69 128.5 191.18 123.71 193.05 122.77 211.17 121.52 212.73 121.94"/><polygon class="cls-12" points="185.24 118.5 218.14 116.21 212.73 121.94 191.18 123.71 185.24 118.5"/><polygon class="cls-6" points="174.83 66.02 188.99 60.4 196.69 68 174.83 66.02"/><polygon class="cls-6" points="210.33 69.04 224.49 63.42 232.2 71.02 210.33 69.04"/><polygon class="cls-4" points="256.67 88.62 273.54 95.59 259.89 119.75 247.4 113.81 256.67 88.62"/><polygon class="cls-5" points="255.31 103.71 257.29 95.38 266.56 98.09 255.31 103.71"/><path class="cls-9" d="M261.26,109.43l9.84,12.43L260,136.47l-10.14-13.81,11.24-13.23Zm-.79,6.66-6,7,5.77,6.27,6-6-5.76-7.26Z"/><polygon class="cls-13" points="161.71 30.93 178.89 0.11 192.84 2.82 267.5 33.64 274.58 40.2 262.6 46.66 172.64 37.81 161.71 30.93"/><polygon class="cls-7" points="178.89 0.11 262.6 5.32 274.58 40.2 178.89 0.11"/><polygon class="cls-14" points="225.97 70.45 161.71 30.93 274.58 40.2 283.95 77.06 225.97 70.45"/><path class="cls-6" d="M190,79.77a4.64,4.64,0,0,1-4.68,4.58,4.56,4.56,0,0,1-4.59-4.58,4.64,4.64,0,1,1,9.27,0Z"/><path class="cls-6" d="M221.79,84.3A4.73,4.73,0,0,1,217.1,89a4.64,4.64,0,0,1-4.58-4.68,4.56,4.56,0,0,1,4.58-4.59A4.65,4.65,0,0,1,221.79,84.3Z"/><path class="cls-15" d="M92,106.31c-6.84-.72,3.31-9.14-2.16-12.53,1.37-18.07-2.59-31.39,5.47-36.35,11.81-7.42,36.94-1.66,42.7-.58A42.35,42.35,0,0,1,92,106.31Z"/><polygon class="cls-16" points="92.55 141.88 96.16 163.72 98.61 164.44 115.15 156.17 114.86 146.24 103.77 132.7 92.55 141.88"/><polygon class="cls-17" points="125.01 174.39 124.36 158.33 117.09 141.05 112.1 143.21 114.14 155.24 112.27 164.74 112.86 180.56 120.55 180.64 125.01 174.39"/><polygon class="cls-18" points="114.14 155.24 96.16 163.72 112.86 180.56 114.14 155.24"/><polygon class="cls-16" points="130.12 180.29 125.01 174.39 112.86 180.56 117.09 187.48 126.14 190.11 130.12 180.29"/><polygon class="cls-17" points="199.02 366.74 200.59 354.79 192.55 343.13 180.33 351.64 182.42 366.96 166.85 379.27 166.56 383.95 171.53 384.74 194.85 376.61 199.02 366.74"/><polygon class="cls-17" points="288.05 313.9 282.29 320.46 283.97 332.89 284.26 332.89 298.86 335.4 308.71 339.23 312.08 325.35 303.75 318.87 288.05 313.9"/><path class="cls-15" d="M92,106.31a42.26,42.26,0,0,1-18.43-6.26L90.93,78.59,95.11,64.7l7.34-6.56,7.34-1.58V79.31l-18.07,27Z"/><path class="cls-19" d="M55.29,75.42a56.94,56.94,0,0,1-1.51-13,39.54,39.54,0,0,1,4.68-17.64L71.57,65.49,94.1,73.34l-1.08,7L70.7,86.73Z"/><path class="cls-20" d="M101.66,22a43,43,0,0,1,25.92,13.39l-23,8.93L94.39,51.59,82,57.64l-7-5.47-2.59-7.85L84.6,24.38l17.06-2.59Z"/><path class="cls-19" d="M127.58,35.39A40,40,0,0,1,138,56.85H109.79L95.11,65l-8.86-1.65-4.82-5.69,9.79-8.93,10.44-9.43,25.92-3.6Z"/><path class="cls-19" d="M98.2,21.79c1.08,0,2.38.21,3.46.21l-11.3,2.88L72.07,44.32l-1.8-7.85,2.09-7.41A41.24,41.24,0,0,1,98.2,21.79Z"/><path class="cls-21" d="M58.46,44.75a43.5,43.5,0,0,1,13.9-15.69l-.29,15.26,9.65,13.11,5.76,3.09,7.63,4.18-1,8.42L70,66.78Z"/><path class="cls-21" d="M73.58,100.05A43.49,43.49,0,0,1,55.29,75.14l15.41,9.5L93,80.1l-19.66,20Z"/><path class="cls-21" d="M117.07,101.05a42.52,42.52,0,0,1-22.68,5.55,6.31,6.31,0,0,1-2.38-.29l18.07-27V56.56h17.21V82.05l-9.94,18.72Z"/><path class="cls-15" d="M138,56.85a35,35,0,0,1,.57,9.14,42.7,42.7,0,0,1-21.52,35.06L127,82.19V56.85Z"/><polygon class="cls-15" points="195.68 163.91 201.15 170.96 215.05 175.78 221.82 191.91 205.33 213.22 171.06 208.4 168.4 190.4 185.46 170.46 195.68 163.91"/><polygon class="cls-22" points="201.15 170.96 227.79 171.82 210.8 184.06 201.15 170.96"/><polygon class="cls-2" points="213.97 256.56 227.58 225.17 204.32 206.31 171.06 208.4 189.64 251.09 213.97 256.56"/><polygon class="cls-23" points="240.8 239.65 217.93 255.05 211.09 246.41 204.32 206.31 227.61 197.46 250.9 203.72 240.8 239.65"/><polygon class="cls-20" points="247.94 250.37 240.8 239.65 211.09 246.41 211.88 274.92 247.94 250.37"/><polygon class="cls-21" points="196.91 268.15 216.56 261.1 211.09 246.41 189.64 251.38 196.91 268.15"/><polygon class="cls-21" points="185.46 170.46 137.01 201.63 134.42 210.34 162.27 211.85 171.06 208.4 185.46 170.46"/><polygon class="cls-23" points="138.02 220.86 162.27 211.85 136.96 186.48 125.15 187.08 122.5 196.16 138.02 220.86"/><polygon class="cls-20" points="130.12 180.29 136.96 186.48 122.5 196.16 117.09 187.48 130.12 180.29"/><polygon class="cls-23" points="249.92 328.01 224.48 299.54 194.82 309.26 196.91 268.15 216.56 261.1 221.82 262.9 230.46 256.23 247.94 250.37 256.78 263.23 251.98 273.34 258.03 283.49 259.42 303.39 265.9 317.79 249.92 328.01"/><polygon class="cls-24" points="196.91 268.15 174.7 318 191.18 331.61 205.5 319.51 224.48 299.54 215.84 289.82 215.77 270.96 196.91 268.15"/><polygon class="cls-2" points="288.05 313.9 259.42 303.39 249.92 328.01 284.26 332.89 288.05 313.9"/><polygon class="cls-2" points="180.33 351.64 200.59 354.79 205.5 319.51 174.7 318 180.33 351.64"/><polygon class="cls-20" points="225.56 257.78 254.59 315.91 257.1 314.91 256 312.25 230.46 256.23 225.56 257.78"/><polygon class="cls-19" points="285.98 324.31 254.59 315.91 256 312.25 286.72 320.58 285.98 324.31"/><polygon class="cls-21" points="240.68 266.06 256.78 263.23 258.03 283.49 249.62 284.96 240.68 266.06"/><polygon class="cls-24" points="199.02 366.74 184.29 366.96 182.42 366.96 154.63 386.11 180.17 386.54 199.74 382.15 199.02 366.74"/><polygon class="cls-19" points="154.63 386.11 154.64 392.29 200.32 388.83 199.74 382.15 154.63 386.11"/><path class="cls-2" d="M174,372.78l6.21,5.11,1.52-1.88L176,371.37ZM169.35,376l5.5,4.73,1.58-1.8-5.06-4.32Z"/><polygon class="cls-24" points="316.05 346.22 318.56 322.76 303.75 318.87 298.86 335.4 309 367.17 316.05 346.22"/><polygon class="cls-20" points="324.82 324.42 318.56 322.76 309 367.17 315.68 367.96 324.82 324.42"/><path class="cls-2" d="M300.63,340.94l.89,2.8,7.62-4.51-1.51-2.09Zm2.73,8.57,7.72-4.81-1.65-2.08-7,3.92Z"/><polygon class="cls-25" points="230.46 256.23 215.84 289.82 202.09 273.91 196.91 268.15 230.46 256.23"/><polygon class="cls-15" points="284.45 150.08 246.29 156.63 242.19 168.87 272.86 171.54 282.8 159.73 284.45 150.08"/><polygon class="cls-20" points="196.91 151.16 210.8 184.06 195.68 163.91 196.47 158.15 196.91 151.16"/><polygon class="cls-21" points="232.83 169.27 210.8 184.06 204.32 206.31 250.9 203.72 261.34 189.1 249.32 164.77 232.83 169.27"/><polygon class="cls-19" points="278.69 189.32 282.8 159.73 249.32 164.77 258.17 184.85 278.69 189.32"/><polygon class="cls-16" points="311.65 177.98 309.56 182.08 300.48 184.06 299.06 175.31 306.69 165.88 313.2 168.19 311.65 177.98"/><polygon class="cls-16" points="327.93 147.38 319.22 163.36 331.53 160.99 339.22 142.21 327.93 147.38"/><polygon class="cls-16" points="314.37 147.19 308.27 160.99 306.69 168.19 317.92 163.08 319.7 147.98 314.37 147.19"/><polygon class="cls-17" points="308.27 160.99 306.4 166.24 311.15 178.84 338.51 160.99 343.75 143.94 339.22 142.21 332.18 156.74 308.56 160.92 308.27 160.99"/><polygon class="cls-23" points="291.8 213.85 269.3 209.1 251.12 203.21 249.32 164.77 288.34 197.38 291.8 213.85"/><polygon class="cls-21" points="293.23 217.81 269.3 209.1 293.88 181.65 301.22 182.95 306.11 189.21 293.23 217.81"/><polygon class="cls-20" points="299.06 175.31 309.56 182.08 306.11 189.21 293.88 181.65 299.06 175.31"/><polygon class="cls-26" points="246.29 156.63 210.8 184.06 249.32 164.77 246.29 156.63"/></svg>