<svg xmlns:xlink="http://www.w3.org/1999/xlink" xmlns="http://www.w3.org/2000/svg" id="illustration" viewBox="0 0 400 400" width="400"  height="400" ><defs><style>.cls-1{fill:#72cbcc;}.cls-2{fill:#50a9aa;}.cls-12,.cls-3{fill:#2b2b2b;}.cls-3{opacity:0.1;}.cls-4{fill:#27788c;}.cls-5{fill:#3aa0ba;}.cls-6{fill:#4f5253;}.cls-7{fill:#474747;}.cls-8{fill:#c3987b;}.cls-9{fill:#8b6651;}.cls-10{fill:#dfbda5;}.cls-11{fill:#6f7173;}.cls-13{fill:#e8cab6;}.cls-14{fill:#fff;}.cls-15{fill:#369496;}.cls-16{fill:#ececeb;}.cls-17{fill:#cececd;}.cls-18{fill:#165e60;}.cls-19{fill:#dddddc;}.cls-20{fill:#c4c4c4;}</style></defs><title>Executive (ESTJ) personality</title><polygon class="cls-1" points="272.53 252.98 227.76 255.86 227.54 252.48 244.82 227.07 247.41 225.85 277.79 231.1 280.16 233.91 275.77 251.18 272.53 252.98"/><polygon class="cls-2" points="227.76 255.86 212.21 238.08 209.91 233.04 209.98 179.78 213.07 174.24 247.41 225.85 227.76 255.86"/><polygon class="cls-3" points="167.01 400.11 309.1 386.51 169.17 374.77 33.91 386.72 167.01 400.11"/><polygon class="cls-4" points="221.28 376.36 191.26 385.36 191.91 391.76 230.71 391.04 230.49 385.64 221.28 376.36"/><polygon class="cls-4" points="89.12 373.91 71.34 379.53 71.42 385 120.65 385.36 120.87 379.31 89.12 373.91"/><polygon class="cls-5" points="71.34 379.53 98.7 361.24 99.34 360.09 119.57 355.77 121.23 362.9 120.94 379.31 71.34 379.53"/><polygon class="cls-5" points="191.26 385.36 201.7 365.85 206.96 350.44 221.14 364.77 222.14 365.27 230.49 385.64 191.26 385.36"/><polygon class="cls-6" points="110.57 266.44 104.02 320 117.7 338.06 139.22 333.17 157.29 304.23 173.05 276.23 113.09 263.64 110.57 266.44"/><polygon class="cls-7" points="104.02 320 98.7 361.24 121.23 362.9 139.22 333.17 104.02 320"/><polygon class="cls-6" points="217.18 330.87 211.49 289.76 209.91 286.89 174.28 277.67 171.97 280.62 167.44 282.06 154.84 299.7 157.29 304.23 182.27 338.79 198.03 347.35 217.18 330.87"/><polygon class="cls-7" points="222.14 365.27 217.18 330.87 182.27 338.79 201.7 365.85 222.14 365.27"/><polygon class="cls-7" points="126.7 252.55 110.57 266.44 157.29 304.23 211.49 289.76 126.7 252.55"/><polygon class="cls-1" points="126.12 210.8 88.83 169.48 95.31 144.58 112.59 153.36 139.15 164.59 140.09 172.15 144.04 196.12 126.12 210.8"/><polygon class="cls-8" points="191.41 170.71 195.15 164.16 227.62 108.23 214.01 54.39 207.6 71.3 189.75 149.62 182.27 166.68 179.82 176.68 191.41 170.71"/><polygon class="cls-9" points="157.94 172.72 154.84 161.06 147.72 142.92 150.67 141.34 190.33 146.09 192.85 148.25 179.82 176.68 157.94 172.72"/><polygon class="cls-6" points="129.94 100.38 120.29 45.53 124.18 45.17 134.69 49.13 135.91 52.88 129.94 100.38"/><polygon class="cls-10" points="134.69 49.13 123.75 140.12 192.92 148.25 214.08 54.39 134.69 49.13"/><polygon class="cls-9" points="215.02 129.9 221.35 119.03 206.96 116.15 215.02 129.9"/><polygon class="cls-7" points="165.71 72.31 120.29 45.53 149.08 18.25 152.68 17.46 166.79 67.34 200.62 25.95 205.09 25.16 228.91 49.06 227.33 50.64 207.39 58.78 205.09 57.84 165.71 72.31"/><polygon class="cls-11" points="178.02 0.11 205.09 25.16 165.71 72.31 149.08 18.25 178.02 0.11"/><path class="cls-7" d="M243.81,88.72l-14.9-39.66-4.39,4.53s-12.24,35.92-12.38,36.28-.36,4.54-.36,4.54L221.35,119Z"/><polygon class="cls-6" points="211.78 94.41 205.09 57.84 228.91 49.06 211.78 94.41"/><polygon class="cls-10" points="206.96 116.15 221.35 119.03 229.7 96.93 211.78 94.41 206.96 116.15"/><polygon class="cls-9" points="212.79 109.6 215.31 98.94 224.23 100.38 212.79 109.6"/><polygon class="cls-8" points="152.97 106.14 142.68 85.48 132.96 75.77 157.79 79.72 161.25 85.19 169.02 80.37 178.67 79.51 200.62 82.1 182.41 87.14 165.5 106.28 152.97 106.14"/><path class="cls-12" d="M187.38,93.26a4.85,4.85,0,0,1-4.75,4.82,4.8,4.8,0,0,1-4.75-4.82,4.74,4.74,0,0,1,4.75-4.75A4.79,4.79,0,0,1,187.38,93.26Z"/><polygon class="cls-9" points="157.79 112.55 152.97 106.14 165.5 106.28 157.79 112.55"/><polygon class="cls-13" points="157.79 79.72 152.97 106.14 165.5 106.28 169.02 80.37 157.79 79.72"/><polygon class="cls-7" points="152.97 79 139.51 68.78 132.96 75.77 152.97 79"/><polygon class="cls-7" points="178.24 79.58 196.45 72.67 200.62 82.1 178.24 79.58"/><polygon class="cls-8" points="143.83 118.16 185.07 120.54 179.53 125.65 147.21 122.84 143.83 118.16"/><polygon class="cls-14" points="148.51 119.96 178.96 122.19 176.87 123.63 149.37 121.26 148.51 119.96"/><polygon class="cls-15" points="139.15 164.59 152.03 169.2 153.55 173.01 152.83 193.74 171.61 211.31 173.34 215.34 164.99 274.07 159.52 277.67 110.57 266.44 139.15 164.59"/><polygon class="cls-1" points="199.4 172.08 213.07 174.24 212.21 238.08 211.49 289.76 159.52 277.67 171.25 212.89 171.76 210.01 194.07 198.71 197.02 176.75 199.4 172.08"/><polygon class="cls-1" points="169.53 183.59 152.03 169.2 149.8 194.46 171.25 212.89 169.53 183.59"/><polygon class="cls-15" points="176.72 184.03 199.4 172.08 196.3 200.22 171.25 212.89 176.72 184.03"/><polygon class="cls-16" points="175.64 169.13 163.19 183.02 152.03 169.2 154.84 161.06 175.64 169.13"/><polygon class="cls-16" points="199.4 172.08 195.15 164.16 175.64 169.13 187.23 185.54 199.4 172.08"/><polygon class="cls-17" points="171.25 212.89 163.19 183.02 175.64 169.13 187.23 185.54 171.25 212.89"/><polygon class="cls-7" points="171.97 188.56 167.01 178.63 175.64 169.13 183.85 180.79 176.94 188.92 174.35 189.71 171.97 188.56"/><polygon class="cls-6" points="171.25 212.89 167.01 197.34 171.97 188.56 176.94 188.92 179.75 198.35 171.25 212.89"/><polygon class="cls-18" points="162.69 233.84 168.16 229.66 172.69 235.78 166.43 239.23 162.69 233.84"/><polygon class="cls-18" points="158.66 258.67 163.62 255.14 167.87 259.82 162.04 263.71 158.66 258.67"/><polygon class="cls-2" points="83.8 123.49 88.83 169.48 115.83 154.73 106.47 120.18 95.75 113.12 83.8 123.49"/><polygon class="cls-8" points="70.64 89.65 95.89 77.71 109.2 89.23 94.02 113.41 88.83 109.34 79.06 104.27 70.64 89.65"/><polygon class="cls-9" points="102.3 95.13 109.2 89.23 94.02 113.41 85.16 113.92 79.06 104.27 102.3 95.13"/><polygon class="cls-8" points="95.67 56.55 103.25 55.9 106.61 83.61 96.32 83.25 95.89 77.71 95.67 56.55"/><polygon class="cls-10" points="94.41 85.86 95.89 77.71 115.76 88.58 105.17 111.04 104.53 112.33 92.65 113.48 90.78 112.48 102.3 95.13 94.41 85.86"/><polygon class="cls-16" points="284.12 252.19 272.53 252.98 277.79 231.1 287.93 232.83 289.3 234.7 286.14 250.82 284.12 252.19"/><polygon class="cls-9" points="305 257.01 284.12 252.19 285.67 244.35 291.03 232.67 310.39 231.68 305 257.01"/><polygon class="cls-19" points="300.17 186.33 291.03 274.94 356.25 274.14 359.41 186.33 300.17 186.33"/><polygon class="cls-20" points="295.49 231.75 293.69 249.82 305.57 227.72 295.49 231.75"/><polygon class="cls-5" points="317.38 180.35 316.87 192.09 343.5 192.09 343.72 180.14 317.38 180.35"/><polygon class="cls-4" points="306 204.04 314.5 203.96 314.14 212.75 305.64 212.75 306 204.04"/><polygon class="cls-19" points="307.87 206.12 312.48 206.12 312.48 210.73 307.66 210.73 307.87 206.12"/><polygon class="cls-4" points="304.92 216.63 313.27 216.49 312.98 225.27 304.49 225.27 304.92 216.63"/><polygon class="cls-19" points="306.72 218.72 311.26 218.72 311.33 223.25 306.51 223.25 306.72 218.72"/><polygon class="cls-4" points="304.06 229.16 312.48 229.08 312.19 237.79 303.63 237.79 304.06 229.16"/><polygon class="cls-19" points="305.86 231.25 310.54 231.25 310.54 235.78 305.71 235.78 305.86 231.25"/><polygon class="cls-4" points="303.27 241.61 311.69 241.61 311.33 250.39 302.83 250.32 303.27 241.61"/><polygon class="cls-19" points="305.07 243.7 309.75 243.7 309.75 248.3 304.92 248.3 305.07 243.7"/><polygon class="cls-6" points="320.4 206.77 320.4 210.51 351.28 210.59 351.42 206.63 320.4 206.77"/><polygon class="cls-6" points="319.61 217.28 319.61 221.02 350.49 221.17 350.7 217.06 319.61 217.28"/><polygon class="cls-6" points="318.38 231.53 318.38 235.28 349.33 235.42 349.48 231.39 318.38 231.53"/><polygon class="cls-6" points="317.45 243.41 317.45 247.15 336.74 247.15 336.74 243.34 317.45 243.41"/><polygon class="cls-16" points="83.87 113.12 83.8 123.49 106.47 120.18 105.17 111.04 83.87 113.12"/><polygon class="cls-6" points="304.56 205.83 308.95 211.67 318.67 202.31 316.73 200.72 309.24 208.43 305.64 204.25 304.56 205.83"/><polygon class="cls-6" points="303.34 218.72 307.87 224.48 317.45 215.12 315.58 213.54 308.09 221.24 304.42 216.99 303.34 218.72"/><path class="cls-12" d="M145.41,89.15a4.75,4.75,0,1,1-4.75-4.75A4.79,4.79,0,0,1,145.41,89.15Z"/><polygon class="cls-10" points="310.54 231.25 285.67 244.34 287.93 232.83 288.96 227.72 307.87 224.48 310.54 231.25"/></svg>