<svg xmlns:xlink="http://www.w3.org/1999/xlink" xmlns="http://www.w3.org/2000/svg" id="illustration" viewBox="0 0 400 400" width="400"  height="400" ><defs><style>.cls-1,.cls-17{fill:#2b2b2b;}.cls-1,.cls-10,.cls-11,.cls-12,.cls-13,.cls-14,.cls-15,.cls-16,.cls-17,.cls-18,.cls-19,.cls-20,.cls-21,.cls-9{fill-rule:evenodd;}.cls-1{opacity:0.1;}.cls-12,.cls-2{fill:#369496;}.cls-11,.cls-3{fill:#1c7678;}.cls-14,.cls-4{fill:#72cbcc;}.cls-15,.cls-5{fill:#50a9aa;}.cls-10,.cls-6{fill:#d0af96;}.cls-13,.cls-7{fill:#efd3c2;}.cls-8,.cls-9{fill:#a9846c;}.cls-16{fill:#f7e6dc;}.cls-18{fill:#27788c;}.cls-19{fill:#3aa0ba;}.cls-20{fill:#318fa6;}.cls-21{fill:#5ec0d9;}</style></defs><title>Logistician (ISTJ) personality</title><polygon class="cls-1" points="172.62 372.76 101.94 382.69 176.51 400.11 279.66 383.81 172.62 372.76"/><polygon class="cls-2" points="266.64 61.91 270.56 61.91 274.42 61.91 274.42 142.55 270.56 142.55 266.64 142.55 266.64 61.91"/><polygon class="cls-3" points="274.42 112.95 274.42 124.3 266.64 126.33 266.64 113.61 274.42 112.95"/><polygon class="cls-4" points="266.64 61.91 239.44 61.91 237.26 65.47 266.64 65.47 266.64 61.91"/><polygon class="cls-2" points="262.56 95.94 238.21 108.08 213.92 95.94 262.56 95.94"/><polygon class="cls-5" points="238.21 108.08 213.92 95.94 238.21 95.94 238.21 108.08"/><polygon class="cls-4" points="237.26 65.47 239.3 65.47 258.35 95.94 256.31 95.94 238.21 67.07 220.25 95.94 218.21 95.94 237.26 65.47"/><polygon class="cls-4" points="270.56 142.55 266.56 142.55 263.66 152.07 270.56 152.07 277.47 152.07 274.42 142.55 270.56 142.55"/><polygon class="cls-4" points="274.42 61.91 300.67 61.91 303.87 65.47 274.42 65.47 274.42 61.91"/><polygon class="cls-2" points="278.49 95.94 302.85 108.08 327.13 95.94 278.49 95.94"/><polygon class="cls-4" points="303.87 65.47 301.83 65.47 282.78 95.94 284.89 95.94 302.85 67.07 320.88 95.94 322.91 95.94 303.87 65.47"/><polygon class="cls-3" points="262.64 53.77 270.56 40.24 278.34 53.77 274.42 61.91 270.56 61.91 266.64 61.91 262.64 53.77"/><polygon class="cls-5" points="262.64 53.77 270.56 40.24 278.34 53.77 262.64 53.77"/><polygon class="cls-5" points="302.85 108.08 278.49 95.94 302.77 95.94 302.85 108.08"/><polygon class="cls-6" points="266.64 126.33 264.09 109.1 253.29 121.44 219.58 169.85 257.1 163.16 266.64 126.33"/><polygon class="cls-7" points="257.1 163.16 210.58 198.46 191.45 195.63 186.07 170.39 257.1 163.16"/><polygon class="cls-8" points="261.44 106.2 252.37 122.75 266.64 126.33 272.92 112.96 261.44 106.2"/><polygon class="cls-6" points="266.64 126.33 282.78 115.93 274.42 94.69 266.64 96.88 260.12 101.06 266.64 126.33"/><polygon class="cls-7" points="247.44 103.48 252.37 122.75 262.18 108.3 266.64 112.25 270.93 110.59 266.64 96.88 247.44 103.48"/><polygon class="cls-9" points="114.04 275.94 127.31 277.16 124.52 262.78 114.04 275.94"/><polygon class="cls-10" points="115.67 261.18 109.09 245.02 127.34 249.14 127.34 249.14 141.98 259.62 137.07 274.9 127.31 277.16 115.67 261.18"/><polygon class="cls-11" points="90.27 80.71 95.39 132.74 157.37 194.01 145.08 151.3 131.86 77.68 90.27 80.71"/><path class="cls-12" d="M89.93,80.71,78.67,82.15l16.72,50.47,6.51-26s0-26.83,0-25.12C102.08,82.45,96.23,81.69,89.93,80.71Z"/><polygon class="cls-12" points="95.39 132.74 86.2 167.8 115.61 198.4 121.86 202.36 156.58 194.26 128.16 150.72 95.39 132.74"/><polygon class="cls-11" points="86.2 167.8 121.62 229.11 129.63 215.85 147.5 196.44 149.59 192.96 86.2 167.8"/><polygon class="cls-11" points="212.1 60.07 207.19 72.51 173.24 54.12 192.73 39.57 212.1 60.07"/><polygon class="cls-13" points="207.19 72.51 221.94 142.76 185.98 152.98 176.51 161.9 167.88 185.64 149.45 192.39 139.87 122.56 129.07 89.17 154.38 57.99 183.86 53.84 207.19 72.51"/><polygon class="cls-9" points="137.94 83.46 183.85 53.84 192.85 61.03 137.94 83.46"/><polygon class="cls-10" points="176.51 161.9 170.56 179.97 156.12 198.61 149.59 192.96 122.02 138.21 127.31 118.09 134.21 115.52 129.07 89.17 137.94 83.46 158.12 161.24 176.51 161.9"/><polygon class="cls-9" points="170.56 179.97 148.15 164.23 185.98 152.98 170.56 179.97"/><polygon class="cls-13" points="133.06 132.78 122.02 138.21 110.31 117.97 125.38 109.7 133.06 132.78"/><polygon class="cls-14" points="101.91 106.77 204.51 40.52 169.56 0.11 102.43 74.22 101.91 106.77"/><polygon class="cls-15" points="169.56 0.11 78.67 82.15 101.91 106.77 169.56 0.11"/><polygon class="cls-10" points="160.82 88.33 146.81 95.33 164.67 97.49 182.08 117.24 177.22 97.28 171.53 88.98 160.82 88.33"/><polygon class="cls-10" points="193.14 80.92 185.24 85.31 183.37 105.22 188.32 115.93 195.19 90.3 203.6 80.27 193.14 80.92"/><polygon class="cls-16" points="171.53 88.98 182.08 117.24 188.32 115.93 185.24 85.31 171.53 88.98"/><polygon class="cls-12" points="146.81 95.33 164.44 83.94 171.53 88.98 146.81 95.33"/><polygon class="cls-12" points="185.24 85.31 188.32 77.98 203.6 80.27 185.24 85.31"/><polygon class="cls-9" points="185.68 119.66 188.32 115.93 182.08 117.24 185.68 119.66"/><path class="cls-9" d="M117.42,119.38c.46,0,5.64-2.66,5.64-2.66l3.27,11.79Z"/><polygon class="cls-9" points="133.06 132.78 128.16 150.72 122.02 138.21 133.06 132.78"/><path class="cls-17" d="M170.06,98.92a4.37,4.37,0,0,1-4.33,4.56,4.44,4.44,0,0,1-4.56-4.33,4.45,4.45,0,0,1,8.89-.23Z"/><path class="cls-17" d="M199,91.57a4.39,4.39,0,0,1-4.33,4.57,4.27,4.27,0,0,1-4.34-4.34,4.34,4.34,0,0,1,4.1-4.56A4.39,4.39,0,0,1,199,91.57Z"/><polygon class="cls-14" points="201.6 125.88 189.91 137 170.48 132.57 201.6 125.88"/><polygon class="cls-11" points="201.6 125.88 187.25 126.24 170.48 132.57 188.94 132.63 201.6 125.88"/><polygon class="cls-10" points="216.35 351.16 214.06 340.31 195.19 331.74 197.71 348.22 201.7 354.14 209.38 356.39 216.35 351.16"/><polygon class="cls-10" points="144.95 338.32 151.93 362.5 159.23 364.35 163.19 358.36 167.98 348.22 155.81 329.35 144.95 338.32"/><polygon class="cls-9" points="145.52 340.19 167.98 348.22 172.65 338.32 160.34 320.96 145.52 340.19"/><path class="cls-9" d="M214.06,340.31c.88-.14-16.35,7.91-16.35,7.91L192,340.31l6.26-11Z"/><polygon class="cls-18" points="206.18 382.45 201.83 382.32 199.1 365.56 201.7 354.14 211.76 360.85 209.53 367.43 206.18 382.45"/><polygon class="cls-18" points="151.89 361.84 145.19 376.24 152.8 388.9 151.89 361.84"/><polygon class="cls-13" points="163.19 358.36 169.89 368.79 163.68 376.73 150.28 379.34 151.89 361.84 163.19 358.36"/><polygon class="cls-19" points="150.28 379.34 169.89 368.79 172.62 372.76 168.4 379.34 150.03 383.81 150.28 379.34"/><polygon class="cls-13" points="150.03 383.81 172.62 372.76 179.58 383.81 168.65 385.92 150.03 383.81"/><polygon class="cls-13" points="216.35 351.16 227.78 363.58 221.82 370.03 213.01 373.26 201.7 354.14 216.35 351.16"/><polygon class="cls-19" points="213.01 373.26 227.78 363.58 231.5 366.93 226.04 373.01 215.24 376.24 213.01 373.26"/><polygon class="cls-13" points="215.24 377.23 231.5 366.93 242.18 377.23 227.9 379.47 215.24 377.23"/><polygon class="cls-18" points="150.03 383.81 152.8 388.9 182.35 388.9 182.35 383.81 150.03 383.81"/><polygon class="cls-18" points="209.53 367.43 207.29 369.54 208.16 371.77 218.84 382.69 242.18 382.69 242.18 377.23 222.94 377.23 209.53 367.43"/><polygon class="cls-10" points="150.03 383.81 176.1 378.23 182.35 383.81 150.03 383.81"/><polygon class="cls-10" points="222.94 377.23 243.42 370.03 242.18 377.23 222.94 377.23"/><polygon class="cls-20" points="146.46 253.92 169.97 296.39 198.62 266.08 216.18 204.93 180.42 180.18 136.46 231.34 146.46 253.92"/><polygon class="cls-13" points="185.84 169.85 133.36 187.26 123.41 206.71 136.46 231.34 173.59 190.72 185.84 169.85"/><polygon class="cls-21" points="216.18 204.93 185.84 169.85 175.5 173.28 136.46 231.34 216.18 204.93"/><polygon class="cls-20" points="171.91 340.31 191.15 326.98 179.15 276.42 127.31 277.16 145.52 340.19 171.91 340.31"/><polygon class="cls-21" points="200.22 299.91 198.62 266.08 146.46 253.92 127.31 277.16 181.64 317.78 200.22 299.91"/><polygon class="cls-19" points="214.06 340.31 181.35 330.4 181.64 317.78 198.62 266.08 214.06 340.31"/><polygon class="cls-18" points="214.06 340.31 171.91 340.31 181.64 317.78 214.06 340.31"/><polygon class="cls-13" points="86.97 225.29 115.67 261.18 127.34 249.14 120.32 233.95 86.97 225.29"/><polygon class="cls-10" points="86.97 225.29 120.32 233.95 136.46 231.34 133.36 187.26 86.97 225.29"/></svg>